<svg xmlns="http://www.w3.org/2000/svg" width="1200" height="820" viewBox="0 0 1200 820" role="img" aria-label="DEO illustration showing an agent, a service, and Movement settlement">
  <defs>
    <linearGradient id="bg" x1="0" x2="1" y1="0" y2="1">
      <stop offset="0" stop-color="#ffffff"/>
      <stop offset="1" stop-color="#f2efe9"/>
    </linearGradient>
    <radialGradient id="blob1" cx="30%" cy="20%" r="70%">
      <stop offset="0" stop-color="#0f3f35" stop-opacity="0.22"/>
      <stop offset="1" stop-color="#0f3f35" stop-opacity="0"/>
    </radialGradient>
    <radialGradient id="blob2" cx="85%" cy="25%" r="70%">
      <stop offset="0" stop-color="#7cf5c3" stop-opacity="0.20"/>
      <stop offset="1" stop-color="#7cf5c3" stop-opacity="0"/>
    </radialGradient>
    <radialGradient id="blob3" cx="55%" cy="95%" r="70%">
      <stop offset="0" stop-color="#22c55e" stop-opacity="0.16"/>
      <stop offset="1" stop-color="#22c55e" stop-opacity="0"/>
    </radialGradient>
    <linearGradient id="g" x1="0" x2="1" y1="0" y2="1">
      <stop offset="0" stop-color="#7cf5c3"/>
      <stop offset="1" stop-color="#22c55e"/>
    </linearGradient>
    <filter id="soft" x="-20%" y="-20%" width="140%" height="140%">
      <feGaussianBlur stdDeviation="14"/>
    </filter>
    <marker id="arrow" markerWidth="12" markerHeight="12" refX="10" refY="6" orient="auto">
      <path d="M0,0 L12,6 L0,12 Z" fill="#071812" fill-opacity="0.55"/>
    </marker>
  </defs>

  <rect x="0" y="0" width="1200" height="820" fill="url(#bg)"/>
  <circle cx="300" cy="170" r="340" fill="url(#blob1)"/>
  <circle cx="980" cy="200" r="320" fill="url(#blob2)"/>
  <circle cx="700" cy="820" r="420" fill="url(#blob3)"/>

  <g opacity="0.85">
    <circle cx="600" cy="430" r="210" fill="#ffffff" filter="url(#soft)"/>
  </g>

  <g>
    <path d="M260 350 C 350 240, 450 210, 545 260" fill="none" stroke="#071812" stroke-opacity="0.20" stroke-width="3" marker-end="url(#arrow)"/>
    <path d="M650 260 C 750 210, 880 250, 940 350" fill="none" stroke="#071812" stroke-opacity="0.20" stroke-width="3" marker-end="url(#arrow)"/>
    <path d="M540 560 C 470 620, 400 655, 320 650" fill="none" stroke="#071812" stroke-opacity="0.12" stroke-width="3"/>
    <path d="M660 560 C 740 650, 870 690, 980 640" fill="none" stroke="#071812" stroke-opacity="0.12" stroke-width="3"/>
  </g>

  <g>
    <circle cx="260" cy="350" r="88" fill="#ffffff" stroke="#071812" stroke-opacity="0.12" stroke-width="2"/>
    <circle cx="260" cy="350" r="44" fill="url(#g)"/>
    <text x="260" y="465" text-anchor="middle" font-family="ui-sans-serif, system-ui" font-size="16" fill="#071812" fill-opacity="0.78">Agent</text>
  </g>

  <g>
    <circle cx="940" cy="350" r="88" fill="#ffffff" stroke="#071812" stroke-opacity="0.12" stroke-width="2"/>
    <rect x="900" y="312" width="80" height="80" rx="28" fill="url(#g)"/>
    <text x="940" y="465" text-anchor="middle" font-family="ui-sans-serif, system-ui" font-size="16" fill="#071812" fill-opacity="0.78">Service</text>
  </g>

  <g>
    <circle cx="600" cy="430" r="210" fill="#ffffff" stroke="#071812" stroke-opacity="0.10" stroke-width="2"/>
    <circle cx="600" cy="430" r="120" fill="none" stroke="url(#g)" stroke-width="10" stroke-linecap="round"/>
    <circle cx="600" cy="430" r="78" fill="#ffffff" stroke="#071812" stroke-opacity="0.10" stroke-width="2"/>

    <g opacity="0.92">
      <rect x="520" y="390" width="160" height="80" rx="24" fill="#ffffff" stroke="#071812" stroke-opacity="0.10"/>
      <text x="600" y="438" text-anchor="middle" font-family="ui-sans-serif, system-ui" font-size="22" fill="#071812" font-weight="700">DEO</text>
      <text x="600" y="462" text-anchor="middle" font-family="ui-sans-serif, system-ui" font-size="13" fill="#071812" fill-opacity="0.62">x402 · proofs · receipts</text>
    </g>

    <g opacity="0.80">
      <circle cx="500" cy="330" r="10" fill="#7cf5c3"/>
      <circle cx="705" cy="310" r="7" fill="#0f3f35"/>
      <circle cx="690" cy="520" r="9" fill="#22c55e"/>
      <circle cx="470" cy="520" r="6" fill="#7cf5c3"/>
    </g>
  </g>

  <g>
    <path d="M580 575 C 585 690, 615 740, 700 750" fill="none" stroke="#071812" stroke-opacity="0.18" stroke-width="3" marker-end="url(#arrow)"/>
    <g>
      <rect x="446" y="670" width="308" height="110" rx="26" fill="#ffffff" stroke="#071812" stroke-opacity="0.10"/>
      <text x="600" y="715" text-anchor="middle" font-family="ui-sans-serif, system-ui" font-size="16" fill="#071812" fill-opacity="0.82">Movement settlement</text>
      <text x="600" y="740" text-anchor="middle" font-family="ui-sans-serif, system-ui" font-size="12" fill="#071812" fill-opacity="0.60">On-chain verification and receipts</text>
      <rect x="530" y="752" width="140" height="10" rx="5" fill="url(#g)" opacity="0.85"/>
    </g>
  </g>
</svg>
